<?xml version="1.0" encoding="utf-8"?>
<!-- Generator: Adobe Illustrator 24.1.1, SVG Export Plug-In . SVG Version: 6.00 Build 0)  -->
<svg version="1.1" id="Layer_1__x28_1:1_x29_" xmlns="http://www.w3.org/2000/svg" xmlns:xlink="http://www.w3.org/1999/xlink"
	 x="0px" y="0px" viewBox="0 0 215 75" style="enable-background:new 0 0 215 75;" xml:space="preserve">
<style type="text/css">
	.st0{fill:#FFFFFF;}
	.st1{fill:#FCB316;}
	.st2{fill:#10357F;}
	.st3{fill:#006FCF;}
	.st4{opacity:0;}
	.st5{fill:#FF5F00;}
	.st6{fill:#EB001B;}
	.st7{fill:#F79E1B;}
</style>
<rect class="st0" width="215" height="75"/>
<rect x="144.2" y="18.4" class="st0" width="56.5" height="35.9"/>
<rect x="145.1" y="48.5" class="st1" width="54.6" height="4.9"/>
<rect x="145.1" y="19.4" class="st2" width="54.6" height="4.9"/>
<path class="st2" d="M167,29.7l-5.6,13.5h-3.7l-2.8-10.7c-0.2-0.7-0.3-0.9-0.8-1.2c-0.8-0.5-2.2-0.9-3.4-1.1l0.1-0.4h5.9
	c0.8,0,1.4,0.5,1.6,1.4l1.5,7.8l3.6-9.2L167,29.7L167,29.7z M181.4,38.7c0-3.6-4.9-3.7-4.9-5.3c0-0.5,0.5-1,1.5-1.1
	c0.5-0.1,1.9-0.1,3.4,0.6L182,30c-0.8-0.3-1.9-0.6-3.3-0.6c-3.4,0-5.9,1.8-5.9,4.5c0,1.9,1.7,3,3,3.7c1.4,0.7,1.8,1.1,1.8,1.7
	c0,0.9-1.1,1.3-2.1,1.3c-1.8,0-2.8-0.5-3.6-0.9l-0.6,3c0.8,0.4,2.3,0.7,3.9,0.7C179,43.3,181.4,41.5,181.4,38.7 M190.5,43.1h3.2
	l-2.8-13.5h-3c-0.7,0-1.2,0.4-1.5,1l-5.2,12.5h3.7l0.7-2h4.5L190.5,43.1z M186.6,38.4l1.8-5.1l1.1,5.1H186.6z M172,29.7l-2.9,13.5
	h-3.5l2.9-13.5H172z"/>
<path class="st3" d="M52.9,26l1.4-3.7h6.2v-6.7H18.1V58h42.4v-6.7h-5.9l-2.2-2.5l-2.2,2.5H33.6V37.9h-5.5L35,22.4h6.7l1.6,3.5v-3.5
	h8.3L52.9,26L52.9,26z M48.3,28.5V27l0.6,1.5l2.8,7.4h2.6l2.8-7.4l0.5-1.5v8.8h2.9V24.5h-4.8l-2.2,5.7l-0.6,1.6l-0.6-1.6l-2.2-5.7
	h-4.8v11.3h3V28.5L48.3,28.5z M42.1,35.8h3.3l-5-11.3h-3.9l-5,11.3h3.3l0.9-2.2h5.5L42.1,35.8L42.1,35.8z M37.9,28.4l0.6-1.4
	l0.6,1.4l1.2,2.9h-3.5L37.9,28.4L37.9,28.4z M35.9,37.9v11.3h9.4v-2.4h-6.6v-2h6.4v-2.4h-6.4v-2h6.6V38L35.9,37.9L35.9,37.9z
	 M55.9,49.1h3.7l-5.3-5.6l5.3-5.6h-3.7l-3.4,3.7l-3.4-3.7h-3.8l5.3,5.7l-5.3,5.6h3.6l3.4-3.7L55.9,49.1L55.9,49.1z M57.3,43.5
	l3.2,3.3v-6.5L57.3,43.5L57.3,43.5z"/>
<g>
	<g class="st4">
		<rect x="74.1" y="17.6" class="st0" width="56.6" height="37.4"/>
	</g>
	<rect x="94.8" y="24.1" class="st5" width="14.9" height="24.4"/>
	<path class="st6" d="M96.5,36.3c0-4.8,2.2-9.3,5.9-12.2c-6.7-5.3-16.5-4.1-21.8,2.6c-5.3,6.7-4.1,16.5,2.6,21.8
		c5.6,4.4,13.5,4.4,19.2,0C98.7,45.5,96.5,41,96.5,36.3z"/>
	<path class="st7" d="M125.9,45.9v-0.5h0.2v-0.1h-0.5v0.1h0.2L125.9,45.9L125.9,45.9z M126.9,45.9v-0.6h-0.2l-0.2,0.4l-0.2-0.4h-0.1
		v0.6h0.1v-0.5l0.2,0.4h0.1l0.2-0.4L126.9,45.9L126.9,45.9z"/>
	<path class="st7" d="M127.4,36.3c0,8.6-6.9,15.5-15.5,15.5c-3.5,0-6.9-1.2-9.6-3.3c6.7-5.3,7.9-15,2.6-21.8c-0.8-1-1.6-1.8-2.6-2.6
		c6.7-5.3,16.5-4.1,21.8,2.6C126.3,29.4,127.4,32.8,127.4,36.3L127.4,36.3z"/>
</g>
</svg>
