<?xml version="1.0" encoding="UTF-8" standalone="no" ?>
<!DOCTYPE svg PUBLIC "-//W3C//DTD SVG 1.1//EN" "http://www.w3.org/Graphics/SVG/1.1/DTD/svg11.dtd">
<svg xmlns="http://www.w3.org/2000/svg" xmlns:xlink="http://www.w3.org/1999/xlink" version="1.1" width="1280" height="994" viewBox="0 0 1280 994" xml:space="preserve">
<desc>Created with Fabric.js 4.2.0</desc>
<defs>
</defs>
<g transform="matrix(1 0 0 1 640 497)" id="5a2edca9-4a16-4b19-9af2-031f96d02086"  >
<rect style="stroke: none; stroke-width: 1; stroke-dasharray: none; stroke-linecap: butt; stroke-dashoffset: 0; stroke-linejoin: miter; stroke-miterlimit: 4; fill: rgb(255,255,255); fill-rule: nonzero; opacity: 1;" vector-effect="non-scaling-stroke"  x="-640" y="-497" rx="0" ry="0" width="1280" height="994" />
</g>
<g transform="matrix(Infinity NaN NaN Infinity 0 0)" id="9ac2f7c6-0705-4677-9762-5f64f2139bd7"  >
</g>
<g transform="matrix(0.54 0 0 0.54 640 497)"  >
<g style="" vector-effect="non-scaling-stroke"   >
		<g transform="matrix(12.97 0 0 12.97 0 0)"  >
<path style="stroke: none; stroke-width: 1; stroke-dasharray: none; stroke-linecap: butt; stroke-dashoffset: 0; stroke-linejoin: miter; stroke-miterlimit: 4; fill: rgb(255,255,255); fill-rule: evenodd; opacity: 1;" vector-effect="non-scaling-stroke"  transform=" translate(-96.38, -96.38)" d="M 0 0 L 192.756 0 L 192.756 192.756 L 0 192.756 L 0 0 z" stroke-linecap="round" />
</g>
		<g transform="matrix(12.97 0 0 12.97 0 0)"  >
<path style="stroke: none; stroke-width: 1; stroke-dasharray: none; stroke-linecap: butt; stroke-dashoffset: 0; stroke-linejoin: miter; stroke-miterlimit: 4; fill: rgb(29,91,153); fill-rule: nonzero; opacity: 1;" vector-effect="non-scaling-stroke"  transform=" translate(-96.38, -96.38)" d="M 181.266 155.531 L 8.504 155.531 L 8.504 37.225 L 184.25199999999998 37.225 L 184.25199999999998 155.531 L 181.266 155.531 z" stroke-linecap="round" />
</g>
		<g transform="matrix(12.97 0 0 12.97 0 0)"  >
<path style="stroke: none; stroke-width: 1; stroke-dasharray: none; stroke-linecap: butt; stroke-dashoffset: 0; stroke-linejoin: miter; stroke-miterlimit: 4; fill: rgb(255,255,255); fill-rule: evenodd; opacity: 1;" vector-effect="non-scaling-stroke"  transform=" translate(-96.38, -96.38)" d="M 181.266 152.545 L 11.49 152.545 L 11.49 40.211 L 181.26600000000002 40.211 L 181.26600000000002 152.54500000000002 z" stroke-linecap="round" />
</g>
		<g transform="matrix(12.97 0 0 12.97 33.19 2.38)"  >
<path style="stroke: none; stroke-width: 1; stroke-dasharray: none; stroke-linecap: butt; stroke-dashoffset: 0; stroke-linejoin: miter; stroke-miterlimit: 4; fill: rgb(29,91,153); fill-rule: evenodd; opacity: 1;" vector-effect="non-scaling-stroke"  transform=" translate(-98.94, -96.56)" d="M 72.851 114.621 L 83.877 78.26599999999999 L 93.71499999999999 78.26599999999999 L 82.68799999999999 114.62099999999998 L 72.85099999999998 114.62099999999998 z M 68.453 78.276 L 59.603 93.688 C 57.351 97.72500000000001 56.033 99.764 55.4 102.313 L 55.265 102.313 C 55.422 99.081 54.971000000000004 95.11 54.929 92.866 L 53.951 78.276 L 37.391000000000005 78.276 L 37.22200000000001 79.25399999999999 C 41.476000000000006 79.25399999999999 43.99900000000001 81.39099999999999 44.69300000000001 85.76299999999999 L 47.921000000000014 114.621 L 58.113000000000014 114.621 L 78.72200000000001 78.276 L 68.453 78.276 z M 144.959 114.621 L 144.68800000000002 109.21499999999999 L 132.40500000000003 109.20499999999998 L 129.89100000000002 114.62099999999998 L 119.21100000000001 114.62099999999998 L 138.578 78.33499999999998 L 151.687 78.33499999999998 L 154.966 114.62099999999998 L 144.959 114.62099999999998 z M 143.832 93.17599999999999 C 143.721 90.48899999999999 143.631 86.84299999999999 143.81199999999998 84.63499999999999 L 143.66699999999997 84.63499999999999 C 143.06899999999996 86.44 140.49699999999999 91.85999999999999 139.36599999999999 94.52499999999999 L 135.706 102.493 L 144.331 102.493 L 143.832 93.17599999999999 z M 104.043 115.654 C 97.09800000000001 115.654 92.488 113.451 89.19800000000001 111.48599999999999 L 93.88400000000001 104.32999999999998 C 96.83900000000001 105.98199999999999 99.15800000000002 107.88899999999998 104.49600000000001 107.88899999999998 C 106.21100000000001 107.88899999999998 107.86500000000001 107.44399999999999 108.805 105.81699999999998 C 110.17200000000001 103.45399999999998 108.489 102.17999999999998 104.647 100.00499999999998 L 102.74900000000001 98.77099999999999 C 97.052 94.87899999999999 94.587 91.18099999999998 97.269 84.72699999999999 C 98.986 80.59899999999999 103.51100000000001 77.469 110.98 77.469 C 116.128 77.469 120.95700000000001 79.69699999999999 123.769 81.87299999999999 L 118.382 88.19099999999999 C 115.63600000000001 85.97099999999999 113.361 84.84799999999998 110.757 84.84799999999998 C 108.68100000000001 84.84799999999998 107.10300000000001 85.64899999999999 106.558 86.72899999999998 C 105.533 88.75899999999999 106.89 90.14299999999999 109.884 92.00099999999999 L 112.14 93.43699999999998 C 119.058 97.79999999999998 120.70400000000001 102.37399999999998 118.972 106.64899999999999 C 115.988 114.01199999999999 110.14999999999999 115.65399999999998 104.04299999999999 115.65399999999998 z M 157.895 83.193 L 157.46900000000002 83.193 L 157.46900000000002 80.599 L 158.45300000000003 80.599 C 159.08000000000004 80.599 159.39800000000002 80.818 159.39800000000002 81.345 C 159.39800000000002 81.815 159.11100000000002 82.01 158.72200000000004 82.053 L 159.44900000000004 83.193 L 158.96700000000004 83.193 L 158.29700000000005 82.085 L 157.89500000000007 82.085 L 157.89500000000007 83.193 z M 158.371 81.72 C 158.691 81.72 158.973 81.689 158.973 81.313 C 158.973 81 158.66600000000003 80.962 158.411 80.962 L 157.895 80.962 L 157.895 81.72 L 158.371 81.72 z M 158.359 84.196 C 157.011 84.196 156.05200000000002 83.187 156.05200000000002 81.852 C 156.05200000000002 80.443 157.116 79.509 158.359 79.509 C 159.586 79.509 160.65200000000002 80.443 160.65200000000002 81.852 C 160.65200000000002 83.262 159.586 84.196 158.359 84.196 z M 158.359 79.916 C 157.34300000000002 79.916 156.554 80.712 156.554 81.852 C 156.554 82.917 157.243 83.78800000000001 158.359 83.78800000000001 C 159.36100000000002 83.78800000000001 160.15 82.998 160.15 81.852 C 160.15 80.712 159.36100000000002 79.916 158.359 79.916 z" stroke-linecap="round" />
</g>
		<g transform="matrix(12.97 0 0 12.97 1.94 522.84)"  >
<path style="stroke: none; stroke-width: 1; stroke-dasharray: none; stroke-linecap: butt; stroke-dashoffset: 0; stroke-linejoin: miter; stroke-miterlimit: 4; fill: rgb(231,168,58); fill-rule: evenodd; opacity: 1;" vector-effect="non-scaling-stroke"  transform=" translate(-96.53, -136.69)" d="M 177.086 125.912 L 15.969 125.912 L 15.969 147.469 L 177.08599999999998 147.469 L 177.08599999999998 125.91199999999999 z" stroke-linecap="round" />
</g>
		<g transform="matrix(12.97 0 0 12.97 -1.93 -1.5)"  >
<path style="stroke: none; stroke-width: 1; stroke-dasharray: none; stroke-linecap: butt; stroke-dashoffset: 0; stroke-linejoin: miter; stroke-miterlimit: 4; fill: rgb(29,91,153); fill-rule: evenodd; opacity: 1;" vector-effect="non-scaling-stroke"  transform=" translate(-96.23, -96.26)" d="M 176.787 45.586 L 15.671 45.586 L 15.671 67.144 L 176.787 67.144 L 176.787 45.586 z M 173.105 145.936 L 172.679 145.936 L 172.679 143.342 L 173.663 143.342 C 174.29000000000002 143.342 174.608 143.561 174.608 144.08800000000002 C 174.608 144.55700000000002 174.321 144.752 173.93200000000002 144.79500000000002 L 174.65900000000002 145.936 L 174.17700000000002 145.936 L 173.50700000000003 144.827 L 173.10500000000005 144.827 L 173.10500000000005 145.936 z M 173.582 144.463 C 173.902 144.463 174.184 144.432 174.184 144.055 C 174.184 143.743 173.877 143.705 173.62199999999999 143.705 L 173.106 143.705 L 173.106 144.46300000000002 L 173.582 144.46300000000002 z M 173.57 146.938 C 172.22199999999998 146.938 171.263 145.92999999999998 171.263 144.594 C 171.263 143.186 172.329 142.25199999999998 173.57 142.25199999999998 C 174.799 142.25199999999998 175.863 143.18599999999998 175.863 144.594 C 175.863 146.004 174.799 146.938 173.57 146.938 z M 173.57 142.658 C 172.554 142.658 171.765 143.45499999999998 171.765 144.594 C 171.765 145.66 172.45399999999998 146.53 173.57 146.53 C 174.572 146.53 175.361 145.741 175.361 144.594 C 175.361 143.45499999999998 174.572 142.658 173.57 142.658 z" stroke-linecap="round" />
</g>
</g>
</g>
</svg>