<?xml version="1.0" encoding="UTF-8" standalone="no"?>
<svg
   xmlns:dc="http://purl.org/dc/elements/1.1/"
   xmlns:cc="http://creativecommons.org/ns#"
   xmlns:rdf="http://www.w3.org/1999/02/22-rdf-syntax-ns#"
   xmlns:svg="http://www.w3.org/2000/svg"
   xmlns="http://www.w3.org/2000/svg"
   xmlns:sodipodi="http://sodipodi.sourceforge.net/DTD/sodipodi-0.dtd"
   xmlns:inkscape="http://www.inkscape.org/namespaces/inkscape"
   version="1.1"
   id="svg2"
   xml:space="preserve"
   width="258.66666"
   height="258.66666"
   viewBox="0 0 258.66666 258.66666"
   sodipodi:docname="VISA_Electron.eps"><metadata
     id="metadata8"><rdf:RDF><cc:Work
         rdf:about=""><dc:format>image/svg+xml</dc:format><dc:type
           rdf:resource="http://purl.org/dc/dcmitype/StillImage" /></cc:Work></rdf:RDF></metadata><defs
     id="defs6" /><sodipodi:namedview
     pagecolor="#ffffff"
     bordercolor="#666666"
     borderopacity="1"
     objecttolerance="10"
     gridtolerance="10"
     guidetolerance="10"
     inkscape:pageopacity="0"
     inkscape:pageshadow="2"
     inkscape:window-width="640"
     inkscape:window-height="480"
     id="namedview4" /><g
     id="g10"
     inkscape:groupmode="layer"
     inkscape:label="ink_ext_XXXXXX"
     transform="matrix(1.3333333,0,0,-1.3333333,0,258.66667)"><g
       id="g12"
       transform="scale(0.1)"><path
         d="M 2.59766,1933.23 H 1930.16 V 5.66797 H 2.59766 V 1933.23"
         style="fill:#ffffff;fill-opacity:1;fill-rule:evenodd;stroke:none"
         id="path14" /><path
         d="M 30.9453,1554.75 V 384.145 H 1901.81 V 1554.75 H 30.9453"
         style="fill:#15569c;fill-opacity:1;fill-rule:evenodd;stroke:none"
         id="path16" /><path
         d="M 1879.95,1532.89 V 406.008 H 52.8047 V 1532.89 H 1879.95"
         style="fill:#ffffff;fill-opacity:1;fill-rule:evenodd;stroke:none"
         id="path18" /><path
         d="M 1821.71,455.078 V 1478.22 H 107.328 V 455.078 H 1821.71"
         style="fill:#15569c;fill-opacity:1;fill-rule:evenodd;stroke:none"
         id="path20" /><path
         d="m 576.496,860.145 c 181.754,77.906 436.804,148.505 774.554,77.808 l 3.56,85.667 C 998.238,1062.54 742.523,949.039 576.496,868.602 v -8.457"
         style="fill:#f8a11a;fill-opacity:1;fill-rule:evenodd;stroke:none"
         id="path22" /><path
         d="m 248.348,797.164 h 171.289 v -51.601 h -106.43 l -0.715,-47.661 h 106.071 v -49.453 h -106.43 l 0.387,-47.656 H 417.488 V 549.191 H 248.402 l -0.054,247.973"
         style="fill:#ffffff;fill-opacity:1;fill-rule:evenodd;stroke:none"
         id="path24" /><path
         d="m 462.656,817.949 h 62.352 l 0.219,-268.758 h -62.348 l -0.223,268.758"
         style="fill:#ffffff;fill-opacity:1;fill-rule:evenodd;stroke:none"
         id="path26" /><path
         d="m 739.496,569.613 c -21.141,-17.914 -53.391,-26.875 -82.062,-26.875 -65.575,0 -95.321,46.586 -95.321,92.813 0,54.469 40.856,100.695 97.117,100.695 68.801,0 90.301,-48.734 90.301,-110.726 H 624.469 c 0,-13.981 8.957,-37.629 43.359,-37.629 21.856,0 34.043,6.453 50.887,17.918 z m -45.867,92.453 c 0,18.633 -8.957,35.481 -29.742,35.481 -19.707,0 -34.758,-17.563 -38.699,-35.481 h 68.441"
         style="fill:#ffffff;fill-opacity:1;fill-rule:evenodd;stroke:none"
         id="path28" /><path
         d="m 938.742,561.375 c -17.199,-10.75 -45.508,-18.637 -66.293,-18.637 -57.34,0 -98.547,32.969 -98.547,92.453 0,60.918 40.852,101.055 102.489,101.055 21.5,0 47.3,-6.808 61.273,-15.766 l -20.062,-40.851 c -9.321,3.941 -19.356,7.168 -29.391,7.168 -31.172,0 -51.957,-18.641 -51.957,-48.379 0,-25.805 20.07,-46.23 46.586,-46.23 11.824,0 23.652,5.378 33.683,10.394 l 22.219,-41.207"
         style="fill:#ffffff;fill-opacity:1;fill-rule:evenodd;stroke:none"
         id="path30" /><path
         d="m 961.793,729.793 h 28.172 l -0.223,61.281 h 60.208 l -1.44,-61.281 h 51.25 l -1.08,-45.148 h -51.24 c 0,-25.086 -1.79,-51.602 -1.79,-67.012 0,-15.766 3.94,-23.289 17.91,-23.289 8.6,0 15.77,4.301 22.94,8.601 l 13.61,-42.289 c -18.27,-11.109 -40.48,-17.918 -61.63,-17.918 -50.527,0 -53.035,31.895 -53.035,73.461 0,22.219 1.789,44.434 1.789,68.446 h -26.875 l 1.434,45.148"
         style="fill:#ffffff;fill-opacity:1;fill-rule:evenodd;stroke:none"
         id="path32" /><path
         d="m 1131.67,729.793 h 62.35 v -25.441 h 0.71 c 9.32,15.406 21.5,30.461 45.87,30.461 6.81,0 13.98,-0.719 20.43,-2.149 l -8.24,-61.637 c -6.1,1.789 -12.9,3.582 -22.22,3.582 -20.78,0 -36.91,-17.558 -36.91,-21.14 l -1.08,-104.278 h -62.35 l 1.44,180.602"
         style="fill:#ffffff;fill-opacity:1;fill-rule:evenodd;stroke:none"
         id="path34" /><path
         d="m 1373.98,736.246 c 66.65,0 101.05,-42.285 101.05,-96.754 0,-54.469 -34.4,-96.754 -101.05,-96.754 -66.66,0 -101.06,42.285 -101.06,96.754 0,54.469 34.4,96.754 101.06,96.754 z m 0,-146.207 c 29.74,0 38.7,25.801 38.7,49.453 0,23.653 -8.96,49.453 -38.7,49.453 -29.75,0 -38.71,-25.8 -38.71,-49.453 0,-23.652 8.96,-49.453 38.71,-49.453"
         style="fill:#ffffff;fill-opacity:1;fill-rule:evenodd;stroke:none"
         id="path36" /><path
         d="m 1508.92,729.793 h 62.35 v -19.707 c 14.34,13.973 36.2,26.16 58.41,26.16 38.35,0 59.13,-21.141 59.13,-70.594 0,-36.91 -0.36,-76.687 -0.71,-116.461 h -62.36 c 0.36,34.758 0.72,69.872 0.72,107.145 0,14.691 -3.94,26.16 -22.58,26.16 -10.03,0 -24.36,-8.605 -32.61,-16.484 l -0.33,-116.821 h -63.45 l 1.43,180.602"
         style="fill:#ffffff;fill-opacity:1;fill-rule:evenodd;stroke:none"
         id="path38" /><path
         d="m 761.242,1101.82 78.793,259.73 h 70.281 l -78.789,-259.73 h -70.285"
         style="fill:#ffffff;fill-opacity:1;fill-rule:evenodd;stroke:none"
         id="path40" /><path
         d="m 729.824,1361.49 -63.226,-110.1 c -16.094,-28.86 -25.508,-43.43 -30.032,-61.64 h -0.953 c 1.11,23.11 -2.109,51.46 -2.41,67.49 l -6.984,104.25 H 507.902 l -1.226,-7 c 30.402,0 48.429,-15.26 53.394,-46.51 l 23.063,-206.16 h 72.816 l 147.25,259.67 h -73.375"
         style="fill:#ffffff;fill-opacity:1;fill-rule:evenodd;stroke:none"
         id="path42" /><path
         d="m 1276.43,1101.82 -1.94,38.63 -87.76,0.05 -17.95,-38.68 h -76.31 l 138.35,259.24 h 93.68 l 23.43,-259.24 z m -8.06,153.2 c -0.78,19.2 -1.44,45.25 -0.13,61.03 h -1.03 c -4.28,-12.91 -22.66,-51.62 -30.74,-70.66 l -26.15,-56.93 61.63,-0.01 -3.58,66.57"
         style="fill:#ffffff;fill-opacity:1;fill-rule:evenodd;stroke:none"
         id="path44" /><path
         d="m 984.105,1094.42 c -49.621,0 -82.554,15.75 -106.062,29.79 l 33.469,51.13 c 21.113,-11.81 37.691,-25.43 75.82,-25.43 12.27,0 24.068,3.18 30.778,14.8 9.77,16.9 -2.25,25.99 -29.7,41.54 l -13.555,8.82 c -40.703,27.81 -58.32,54.22 -39.164,100.33 12.278,29.5 44.598,51.86 97.949,51.86 36.79,0 71.29,-15.91 91.38,-31.46 l -38.48,-45.14 c -19.63,15.86 -35.87,23.88 -54.49,23.88 -14.83,0 -26.1,-5.72 -29.98,-13.44 -7.328,-14.51 2.36,-24.38 23.75,-37.68 l 16.13,-10.26 c 49.41,-31.15 61.18,-63.83 48.8,-94.39 -21.31,-52.59 -63.02,-64.35 -106.645,-64.35"
         style="fill:#ffffff;fill-opacity:1;fill-rule:evenodd;stroke:none"
         id="path46" /></g></g></svg>
